<svg width="30" height="30" xmlns="http://www.w3.org/2000/svg"><path d="M10.313 12.656h9.374c.518 0 .938-.42.938-.937v-.938a.937.937 0 00-.938-.937h-9.375a.937.937 0 00-.937.937v.938c0 .518.42.937.938.937zm-.938 4.688c0 .518.42.937.938.937h9.374c.518 0 .938-.42.938-.937v-.938a.937.937 0 00-.938-.937h-9.375a.937.937 0 00-.937.937v.938zM15 24.44a4.68 4.68 0 01-2.746-.89L0 14.7v12.488A2.812 2.812 0 002.813 30h24.375A2.812 2.812 0 0030 27.187V14.7l-12.254 8.85a4.685 4.685 0 01-2.746.89zM28.922 9.548c-.518-.407-1.01-.79-1.735-1.337V5.625a2.812 2.812 0 00-2.812-2.813h-4.544l-.53-.384C18.316 1.709 16.36-.021 15 0c-1.36-.02-3.316 1.71-4.301 2.428l-.53.384H5.625a2.812 2.812 0 00-2.813 2.813V8.21c-.724.547-1.216.93-1.734 1.337A2.812 2.812 0 000 11.76v.624l5.625 4.063V5.625h18.75v10.823L30 12.385v-.624a2.81 2.81 0 00-1.078-2.213z" fill="#013480"/></svg>