<svg width="25" height="40" xmlns="http://www.w3.org/2000/svg"><path d="M16.247 7.499a3.75 3.75 0 000-7.499 3.75 3.75 0 000 7.499zm7.382 11.646l-1.82-.922-.758-2.296c-1.148-3.484-4.35-5.92-7.983-5.929-2.812-.008-4.366.79-7.288 1.969a7.451 7.451 0 00-3.882 3.608l-.523 1.063a2.508 2.508 0 001.109 3.35c1.218.618 2.703.118 3.32-1.116l.523-1.063a2.483 2.483 0 011.289-1.202l2.093-.844-1.187 4.741a5.017 5.017 0 001.164 4.593l4.679 5.109c.562.617.96 1.359 1.164 2.164l1.43 5.725a2.504 2.504 0 003.03 1.82 2.504 2.504 0 001.82-3.03l-1.734-6.953a4.997 4.997 0 00-1.164-2.163l-3.554-3.882L16.7 18.52l.43 1.29a4.982 4.982 0 002.476 2.89l1.82.921a2.466 2.466 0 003.32-1.117c.601-1.226.11-2.742-1.117-3.359zm-17.88 10.99a4.847 4.847 0 01-1.11 1.68L.735 35.728a2.503 2.503 0 000 3.539 2.494 2.494 0 003.53 0l4.64-4.64a5.077 5.077 0 001.11-1.68l1.054-2.64c-4.32-4.71-3.022-3.265-3.702-4.194L5.75 30.136z" fill="#393D3F"/></svg>