<svg width="26" height="26" xmlns="http://www.w3.org/2000/svg"><path d="M8.313 16.125h.585v.781c0 .432.35.782.782.782h1.953c.431 0 .781-.35.781-.782v-.781H13c.863 0 1.563-.7 1.563-1.563V3.626c0-.863-.7-1.563-1.563-1.563v-.78A.781.781 0 0012.219.5H9.094a.781.781 0 00-.781.781v.782c-.863 0-1.563.7-1.563 1.562v10.938c0 .862.7 1.562 1.563 1.562zm14.843 6.25h-.063a9.328 9.328 0 002.407-6.25c0-5.17-4.205-9.375-9.375-9.375v3.125a6.257 6.257 0 016.25 6.25 6.257 6.257 0 01-6.25 6.25H2.844A2.344 2.344 0 00.5 24.719c0 .431.35.781.781.781H24.72c.431 0 .781-.35.781-.781a2.344 2.344 0 00-2.344-2.344zM5.578 20.812h10.156a.39.39 0 00.391-.39v-.781a.39.39 0 00-.39-.391H5.577a.39.39 0 00-.39.39v.782c0 .216.174.39.39.39z" fill="#393D3F"/></svg>