<?xml version="1.0" encoding="UTF-8"?>
<svg width="11px" height="17px" viewBox="0 0 11 17" version="1.1" xmlns="http://www.w3.org/2000/svg" xmlns:xlink="http://www.w3.org/1999/xlink">
    <title>mobile-alt-solid</title>
    <g id="07-WF-Set-1---Find-a-Doctor" stroke="none" stroke-width="1" fill="none" fill-rule="evenodd">
        <g id="Find-a-Doctor-Details" transform="translate(-549.000000, -1838.000000)" fill="#393D3F" fill-rule="nonzero">
            <g id="Group-2-Copy-6" transform="translate(516.000000, 1449.000000)">
                <g id="Group" transform="translate(22.724638, 286.000000)">
                    <g id="Group-22-Copy" transform="translate(0.775362, 97.000000)">
                        <path d="M18.265625,6.5 L11.046875,6.5 C10.1928711,6.5 9.5,7.19287109 9.5,8.046875 L9.5,21.453125 C9.5,22.3071289 10.1928711,23 11.046875,23 L18.265625,23 C19.1196289,23 19.8125,22.3071289 19.8125,21.453125 L19.8125,8.046875 C19.8125,7.19287109 19.1196289,6.5 18.265625,6.5 Z M14.65625,21.96875 C14.0858398,21.96875 13.625,21.5079102 13.625,20.9375 C13.625,20.3670898 14.0858398,19.90625 14.65625,19.90625 C15.2266602,19.90625 15.6875,20.3670898 15.6875,20.9375 C15.6875,21.5079102 15.2266602,21.96875 14.65625,21.96875 Z M18.265625,18.4882812 C18.265625,18.7009766 18.0916016,18.875 17.8789062,18.875 L11.4335938,18.875 C11.2208984,18.875 11.046875,18.7009766 11.046875,18.4882812 L11.046875,8.43359375 C11.046875,8.22089844 11.2208984,8.046875 11.4335938,8.046875 L17.8789062,8.046875 C18.0916016,8.046875 18.265625,8.22089844 18.265625,8.43359375 L18.265625,18.4882812 Z" id="mobile-alt-solid"></path>
                    </g>
                </g>
            </g>
        </g>
    </g>
</svg>