<?xml version="1.0" encoding="UTF-8"?>
<svg width="16px" height="12px" viewBox="0 0 16 12" version="1.1" xmlns="http://www.w3.org/2000/svg" xmlns:xlink="http://www.w3.org/1999/xlink">
    <title>Shape</title>
    <g id="07-WF-Set-1---Find-a-Doctor" stroke="none" stroke-width="1" fill="none" fill-rule="evenodd">
        <g id="Find-a-Doctor" transform="translate(-104.000000, -1039.000000)" fill="#393D3F" fill-rule="nonzero">
            <g id="Group-2" transform="translate(92.000000, 1025.000000)">
                <path d="M17.9827176,22.7403655 L14.5173302,19.2749781 C14.1277813,18.8854292 13.4965426,18.884314 13.1056197,19.2724839 L13.1027176,19.2753655 C12.7119786,19.6633529 12.7097479,20.2946353 13.0977353,20.6853743 C13.0985627,20.6862077 13.0993917,20.6870395 13.1002221,20.6878699 L17.9827176,25.5703655 L17.9827176,25.5703655 L26.9079114,16.5467201 C27.2947823,16.1555817 27.293054,15.5254061 26.9040435,15.1363956 L26.9022824,15.1346345 C26.5151808,14.747533 25.8875653,14.747533 25.5004638,15.1346345 C25.4991042,15.1359941 25.4977485,15.1373576 25.4963969,15.1387251 L17.9827176,22.7403655 L17.9827176,22.7403655 Z" id="Shape"></path>
            </g>
        </g>
    </g>
</svg>