<?xml version="1.0" encoding="UTF-8"?>
<svg width="30px" height="30px" viewBox="0 0 30 30" version="1.1" xmlns="http://www.w3.org/2000/svg" xmlns:xlink="http://www.w3.org/1999/xlink">
    <title>envelope-open-text-solid</title>
    <g id="10-WF-Set-1---Services-and-Content-Pages" stroke="none" stroke-width="1" fill="none" fill-rule="evenodd">
        <g id="Call-Out" transform="translate(-69.000000, -195.000000)" fill="#013480" fill-rule="nonzero">
            <g id="Group-12" transform="translate(53.000000, 180.000000)">
                <path d="M26.3125,27.6561295 L35.6875,27.6561295 C36.2054687,27.6561295 36.625,27.2365982 36.625,26.7186295 L36.625,25.7811295 C36.625,25.2631607 36.2054687,24.8436295 35.6875,24.8436295 L26.3125,24.8436295 C25.7945312,24.8436295 25.375,25.2631607 25.375,25.7811295 L25.375,26.7186295 C25.375,27.2365982 25.7945312,27.6561295 26.3125,27.6561295 Z M25.375,32.3436295 C25.375,32.8615982 25.7945312,33.2811295 26.3125,33.2811295 L35.6875,33.2811295 C36.2054687,33.2811295 36.625,32.8615982 36.625,32.3436295 L36.625,31.4061295 C36.625,30.8881607 36.2054687,30.4686295 35.6875,30.4686295 L26.3125,30.4686295 C25.7945312,30.4686295 25.375,30.8881607 25.375,31.4061295 L25.375,32.3436295 Z M31,39.4410904 C30.0378906,39.4410904 29.0757812,39.144606 28.2542969,38.5510514 L16,29.6987076 L16,42.1873795 C16,43.7406998 17.2591797,44.9998795 18.8125,44.9998795 L43.1875,44.9998795 C44.7408203,44.9998795 46,43.7406998 46,42.1873795 L46,29.6987076 L33.7457031,38.5510514 C32.9242188,39.1440201 31.9621094,39.4410904 31,39.4410904 Z M44.9224609,24.547731 C44.4039062,24.1410904 43.9123047,23.7584732 43.1875,23.2112076 L43.1875,20.6248795 C43.1875,19.0715592 41.9283203,17.8123795 40.375,17.8123795 L35.8310547,17.8123795 C35.6529297,17.6834732 35.4871094,17.5627701 35.3013672,17.4280045 C34.3164062,16.7090592 32.359375,14.9793717 31,14.9998795 C29.640625,14.9793717 27.6841797,16.7090592 26.6986328,17.4280045 C26.5128906,17.5627701 26.3470703,17.6834732 26.1689453,17.8123795 L21.625,17.8123795 C20.0716797,17.8123795 18.8125,19.0715592 18.8125,20.6248795 L18.8125,23.2112076 C18.0876953,23.7578873 17.5960938,24.1410904 17.0775391,24.547731 C16.3974435,25.0807139 16,25.8967564 16,26.760817 L16,27.3848404 L21.625,31.448317 L21.625,20.6248795 L40.375,20.6248795 L40.375,31.448317 L46,27.3848404 L46,26.760817 C46,25.8971451 45.6027344,25.0809342 44.9224609,24.547731 Z" id="envelope-open-text-solid"></path>
            </g>
        </g>
    </g>
</svg>