<?xml version="1.0" encoding="UTF-8"?>
<svg width="26px" height="23px" viewBox="0 0 26 23" version="1.1" xmlns="http://www.w3.org/2000/svg" xmlns:xlink="http://www.w3.org/1999/xlink">
    <title>A2E8222C-3F10-416E-AB37-44E0FF5CCC9E</title>
    <g id="10-WF-Set-1---Services-and-Content-Pages" stroke="none" stroke-width="1" fill="none" fill-rule="evenodd">
        <g id="Landing-Page---Module-List" transform="translate(-1153.000000, -5843.000000)" fill="#393D3F" fill-rule="nonzero">
            <g id="Group-16" transform="translate(383.000000, 5654.000000)">
                <g id="Group-11" transform="translate(128.000000, 152.000000)">
                    <g id="Group-4" transform="translate(582.000000, 0.000000)">
                        <g id="Group-3-Copy-3" transform="translate(24.500000, 0.000000)">
                            <path d="M42.3523868,59.5398868 L54.8523868,59.5398868 L54.8523868,40.0086368 C54.8523868,38.7146915 53.8025822,37.6648868 52.5086368,37.6648868 L44.6961368,37.6648868 C43.4021915,37.6648868 42.3523868,38.7146915 42.3523868,40.0086368 L42.3523868,59.5398868 Z M45.4773868,40.7898868 L51.7273868,40.7898868 L51.7273868,42.3523868 L45.4773868,42.3523868 L45.4773868,40.7898868 Z M61.1023868,44.6961368 L61.1023868,57.1961368 C61.1023868,58.4900822 60.0525822,59.5398868 58.7586368,59.5398868 L56.4148868,59.5398868 L56.4148868,42.3523868 L58.7586368,42.3523868 C60.0525822,42.3523868 61.1023868,43.4021915 61.1023868,44.6961368 Z M40.7898868,59.5398868 L38.4461368,59.5398868 C37.1521915,59.5398868 36.1023868,58.4900822 36.1023868,57.1961368 L36.1023868,44.6961368 C36.1023868,43.4021915 37.1521915,42.3523868 38.4461368,42.3523868 L40.7898868,42.3523868 L40.7898868,59.5398868 Z" id="icon_suitcase-solid"></path>
                        </g>
                    </g>
                </g>
            </g>
        </g>
    </g>
</svg>