<?xml version="1.0" encoding="UTF-8"?>
<svg width="26px" height="26px" viewBox="0 0 26 26" version="1.1" xmlns="http://www.w3.org/2000/svg" xmlns:xlink="http://www.w3.org/1999/xlink">
    <title>0C68DF0A-8490-4690-9412-041BB5FB1EF1</title>
    <g id="09-WF-Set-1---Homepage" stroke="none" stroke-width="1" fill="none" fill-rule="evenodd">
        <g id="Homepage-v2---Larger-Sections" transform="translate(-784.000000, -1110.000000)" fill="#393D3F" fill-rule="nonzero">
            <g id="Group-28" transform="translate(772.000000, 1100.000000)">
                <path d="M20.3125,26.125 L20.8984375,26.125 L20.8984375,26.90625 C20.8984375,27.3378906 21.2480469,27.6875 21.6796875,27.6875 L23.6328125,27.6875 C24.0644531,27.6875 24.4140625,27.3378906 24.4140625,26.90625 L24.4140625,26.125 L25,26.125 C25.862793,26.125 26.5625,25.425293 26.5625,24.5625 L26.5625,13.625 C26.5625,12.762207 25.862793,12.0625 25,12.0625 L25,11.28125 C25,10.8496094 24.6503906,10.5 24.21875,10.5 L21.09375,10.5 C20.6621094,10.5 20.3125,10.8496094 20.3125,11.28125 L20.3125,12.0625 C19.449707,12.0625 18.75,12.762207 18.75,13.625 L18.75,24.5625 C18.75,25.425293 19.449707,26.125 20.3125,26.125 Z M35.15625,32.375 L35.0932617,32.375 C36.5839844,30.7143555 37.5,28.5273438 37.5,26.125 C37.5,20.9550781 33.2949219,16.75 28.125,16.75 L28.125,19.875 C31.5712891,19.875 34.375,22.6787109 34.375,26.125 C34.375,29.5712891 31.5712891,32.375 28.125,32.375 L14.84375,32.375 C13.5493164,32.375 12.5,33.4243164 12.5,34.71875 C12.5,35.1503906 12.8496094,35.5 13.28125,35.5 L36.71875,35.5 C37.1503906,35.5 37.5,35.1503906 37.5,34.71875 C37.5,33.4243164 36.4506836,32.375 35.15625,32.375 Z M17.578125,30.8125 L27.734375,30.8125 C27.9501953,30.8125 28.125,30.6376953 28.125,30.421875 L28.125,29.640625 C28.125,29.4248047 27.9501953,29.25 27.734375,29.25 L17.578125,29.25 C17.3623047,29.25 17.1875,29.4248047 17.1875,29.640625 L17.1875,30.421875 C17.1875,30.6376953 17.3623047,30.8125 17.578125,30.8125 Z" id="icon_microscope-solid"></path>
            </g>
        </g>
    </g>
</svg>