<?xml version="1.0" encoding="UTF-8"?>
<svg width="26px" height="29px" viewBox="0 0 26 29" version="1.1" xmlns="http://www.w3.org/2000/svg" xmlns:xlink="http://www.w3.org/1999/xlink">
    <title>9E0231D8-181F-4AF1-8BE7-4B58B832AD7E</title>
    <g id="10-WF-Set-1---Services-and-Content-Pages" stroke="none" stroke-width="1" fill="none" fill-rule="evenodd">
        <g id="Landing-Page---Module-List" transform="translate(-590.000000, -5840.000000)" fill="#393D3F" fill-rule="nonzero">
            <g id="Group-16" transform="translate(383.000000, 5654.000000)">
                <g id="Group-11" transform="translate(128.000000, 152.000000)">
                    <g id="Group-3" transform="translate(43.500000, 0.000000)">
                        <path d="M58.4238154,37.8881011 L55.745244,37.8881011 L55.745244,34.9863154 C55.745244,34.6165052 55.4454114,34.3166726 55.0756011,34.3166726 L52.8434583,34.3166726 C52.473648,34.3166726 52.1738154,34.6165052 52.1738154,34.9863154 L52.1738154,37.8881011 L45.0309583,37.8881011 L45.0309583,34.9863154 C45.0309583,34.6165052 44.7311257,34.3166726 44.3613154,34.3166726 L42.1291726,34.3166726 C41.7593623,34.3166726 41.4595297,34.6165052 41.4595297,34.9863154 L41.4595297,37.8881011 L38.7809583,37.8881011 C37.3016056,37.8881011 36.1023868,39.0873199 36.1023868,40.5666726 L36.1023868,60.2095297 C36.1023868,61.6888824 37.3016056,62.8881011 38.7809583,62.8881011 L58.4238154,62.8881011 C59.9031681,62.8881011 61.1023868,61.6888824 61.1023868,60.2095297 L61.1023868,40.5666726 C61.1023868,39.0873199 59.9031681,37.8881011 58.4238154,37.8881011 Z M58.088994,60.2095297 L39.1157797,60.2095297 C38.9308629,60.2095297 38.7809583,60.059625 38.7809583,59.8747083 L38.7809583,43.245244 L58.4238154,43.245244 L58.4238154,59.8747083 C58.4238154,60.059625 58.2739108,60.2095297 58.088994,60.2095297 Z M55.139831,49.0125431 L47.1984806,56.8902775 C46.9359248,57.1507127 46.5119293,57.1490386 46.2514382,56.8864828 L42.0610922,52.6622083 C41.8006569,52.3996525 41.802331,51.9756569 42.0648868,51.7151659 L43.3326882,50.4575766 C43.595244,50.1971413 44.0192395,50.1988154 44.2796748,50.461427 L46.7408355,52.9425096 L52.9390498,46.7940163 C53.2016056,46.533581 53.6256011,46.5352552 53.8860922,46.797811 L55.1436815,48.0655565 C55.4041168,48.3281123 55.4023868,48.7521078 55.139831,49.0125431 Z" id="icon_calendar-check-regular"></path>
                    </g>
                </g>
            </g>
        </g>
    </g>
</svg>