<?xml version="1.0" encoding="UTF-8"?>
<svg width="11px" height="15px" viewBox="0 0 11 15" version="1.1" xmlns="http://www.w3.org/2000/svg" xmlns:xlink="http://www.w3.org/1999/xlink">
    <title>E4802503-410C-496B-ADC4-4F82503883FF</title>
    <defs>
        <path d="M13.9267442,6.72325581 C11.1389942,6.72325581 8.88430233,8.97794767 8.88430233,11.7656977 C8.88430233,15.5475291 13.9267442,21.1302326 13.9267442,21.1302326 C13.9267442,21.1302326 18.969186,15.5475291 18.969186,11.7656977 C18.969186,8.97794767 16.7144942,6.72325581 13.9267442,6.72325581 L13.9267442,6.72325581 Z M13.9267442,13.5665698 C12.9326628,13.5665698 12.1258721,12.7597791 12.1258721,11.7656977 C12.1258721,10.7716163 12.9326628,9.96482558 13.9267442,9.96482558 C14.9208256,9.96482558 15.7276163,10.7716163 15.7276163,11.7656977 C15.7276163,12.7597791 14.9208256,13.5665698 13.9267442,13.5665698 L13.9267442,13.5665698 Z" id="path-1"></path>
    </defs>
    <g id="12-WF-Set-2---Search" stroke="none" stroke-width="1" fill="none" fill-rule="evenodd">
        <g id="Search" transform="translate(-1054.000000, -1352.000000)">
            <g id="Group-7" transform="translate(1024.639535, 1203.000000)">
                <g id="Group-2-Copy-3" transform="translate(0.000000, 56.000000)">
                    <g id="Group-22" transform="translate(21.130233, 86.641860)">
                        <mask id="mask-2" fill="white">
                            <use xlink:href="#path-1"></use>
                        </mask>
                        <use id="icon_location-pin-black" fill="#393D3F" xlink:href="#path-1"></use>
                    </g>
                </g>
            </g>
        </g>
    </g>
</svg>