<?xml version="1.0" encoding="UTF-8"?>
<svg width="25px" height="40px" viewBox="0 0 25 40" version="1.1" xmlns="http://www.w3.org/2000/svg" xmlns:xlink="http://www.w3.org/1999/xlink">
    <title>5EA3B292-5611-466C-A1C1-2B56A085B2F3</title>
    <g id="10-WF-Set-1---Services-and-Content-Pages" stroke="none" stroke-width="1" fill="none" fill-rule="evenodd">
        <g id="Landing-Page---Module-List" transform="translate(-885.000000, -5834.000000)" fill="#393D3F" fill-rule="nonzero">
            <g id="Group-16" transform="translate(383.000000, 5654.000000)">
                <g id="Group-11" transform="translate(128.000000, 152.000000)">
                    <g id="Group-6" transform="translate(305.000000, 0.000000)">
                        <g id="Group-3-Copy-2" transform="translate(32.000000, 0.000000)">
                            <path d="M53.2472498,35.4987333 C55.3172126,35.4987333 56.9966164,33.8193295 56.9966164,31.7493667 C56.9966164,29.6794038 55.3172126,28 53.2472498,28 C51.1772869,28 49.4978831,29.6794038 49.4978831,31.7493667 C49.4978831,33.8193295 51.1772869,35.4987333 53.2472498,35.4987333 Z M60.6288154,47.1452035 L58.8088103,46.2234842 L58.0511258,43.9269971 C56.9028822,40.4432106 53.7002982,38.0061223 50.0680993,37.9982542 C47.2560743,37.9904999 45.7016494,38.7872403 42.7802678,39.9667286 C41.0930528,40.6463013 39.7104739,41.9351461 38.8981111,43.575494 L38.374762,44.6378145 C37.7654899,45.8719811 38.2575943,47.3717277 39.4839497,47.988811 C40.7024938,48.6058943 42.1866181,48.1059787 42.8037014,46.8718122 L43.3270505,45.8094916 C43.6004418,45.262709 44.0534903,44.8330941 44.6158953,44.6065698 L46.7092917,43.7629623 L45.5219922,48.5043489 C45.1158108,50.1290745 45.5532369,51.8553454 46.6858581,53.0973231 L51.3647552,58.2058351 C51.9271602,58.8229184 52.3255305,59.5649805 52.5286211,60.3695321 L53.9580672,66.0951275 C54.2939479,67.4308393 55.6530934,68.2510133 56.9888052,67.9151325 C58.3245171,67.5792518 59.1446911,66.2201064 58.8088103,64.8843945 L57.0747282,57.9324438 C56.8716375,57.1278922 56.4732673,56.3780189 55.9108623,55.7687468 L52.3567752,51.8865901 L53.7002982,46.520309 L54.1299132,47.8091538 C54.5439057,49.0667539 55.4343803,50.1056409 56.6060574,50.6992906 L58.4260625,51.6210099 C59.6446066,52.2380932 61.1287309,51.7381776 61.7458142,50.5040111 C62.3472751,49.2776558 61.8551707,47.7622868 60.6288154,47.1452035 L60.6288154,47.1452035 Z M42.7490231,58.1355345 C42.4990653,58.7682401 42.1241287,59.3384563 41.6398355,59.8149383 L37.7342452,63.7283398 C36.7578476,64.7047373 36.7578476,66.290407 37.7342452,67.2668045 C38.7106428,68.2432021 40.2885013,68.2432021 41.2648988,67.2668045 L45.9047401,62.6269633 C46.3812221,62.1504813 46.7561587,61.5802651 47.0139277,60.9475595 L48.0684371,58.3073805 C43.7488542,53.5972386 45.0455102,55.042307 44.3659375,54.1127765 L42.7490231,58.1355345 L42.7490231,58.1355345 Z" id="icon_walking-solid"></path>
                        </g>
                    </g>
                </g>
            </g>
        </g>
    </g>
</svg>