<?xml version="1.0" encoding="UTF-8"?>
<svg width="14px" height="14px" viewBox="0 0 14 14" version="1.1" xmlns="http://www.w3.org/2000/svg" xmlns:xlink="http://www.w3.org/1999/xlink">
    <title>icon copy 4</title>
    <defs>
        <path d="M9.4125,3.92083333 C9.08794766,4.24538567 9.08771215,4.7715163 9.4119738,5.09635906 L13.475,9.16666667 L13.475,9.16666667 L4.16666667,9.16666667 C3.70642938,9.16666667 3.33333333,9.53976271 3.33333333,10 C3.33333333,10.4602373 3.70642938,10.8333333 4.16666667,10.8333333 L13.475,10.8333333 L13.475,10.8333333 L9.4119738,14.9036409 C9.08771215,15.2284837 9.08794766,15.7546143 9.4125,16.0791667 C9.73696729,16.403634 10.2630327,16.403634 10.5875,16.0791667 L16.6666667,10 L16.6666667,10 L10.5875,3.92083333 C10.2630327,3.59636604 9.73696729,3.59636604 9.4125,3.92083333 Z" id="path-1"></path>
    </defs>
    <g id="09-WF-Set-1---Homepage" stroke="none" stroke-width="1" fill="none" fill-rule="evenodd">
        <g id="Homepage-v2---Larger-Sections" transform="translate(-660.000000, -704.000000)">
            <g id="Group-2" transform="translate(80.000000, 639.000000)">
                <g id="icon-copy-6" transform="translate(577.000000, 62.000000)">
                    <mask id="mask-2" fill="white">
                        <use xlink:href="#path-1"></use>
                    </mask>
                    <use id="Mask" fill-opacity="0.7" fill="#000000" xlink:href="#path-1"></use>
                    <g id="Group" mask="url(#mask-2)" fill="#1D72AF">
                        <g id="↪🎨">
                            <rect id="Atoms-/-Colors-/-Black" x="0" y="0" width="20" height="20"></rect>
                        </g>
                    </g>
                </g>
            </g>
        </g>
    </g>
</svg>