<?xml version="1.0" encoding="UTF-8"?>
<svg width="23px" height="35px" viewBox="0 0 23 35" version="1.1" xmlns="http://www.w3.org/2000/svg" xmlns:xlink="http://www.w3.org/1999/xlink">
    <title>mobile-alt-solid</title>
    <g id="10-WF-Set-1---Services-and-Content-Pages" stroke="none" stroke-width="1" fill="none" fill-rule="evenodd">
        <g id="Call-Out" transform="translate(-73.000000, -283.000000)" fill="#013480" fill-rule="nonzero">
            <g id="Group" transform="translate(53.000000, 180.000000)">
                <g id="Group-3" transform="translate(0.000000, 89.000000)">
                    <path d="M39.0409416,14.6034416 L24.1659416,14.6034416 C22.406176,14.6034416 20.9784416,16.031176 20.9784416,17.7909416 L20.9784416,45.4159416 C20.9784416,47.1757072 22.406176,48.6034416 24.1659416,48.6034416 L39.0409416,48.6034416 C40.8007072,48.6034416 42.2284416,47.1757072 42.2284416,45.4159416 L42.2284416,17.7909416 C42.2284416,16.031176 40.8007072,14.6034416 39.0409416,14.6034416 Z M31.6034416,46.4784416 C30.428051,46.4784416 29.4784416,45.5288322 29.4784416,44.3534416 C29.4784416,43.178051 30.428051,42.2284416 31.6034416,42.2284416 C32.7788322,42.2284416 33.7284416,43.178051 33.7284416,44.3534416 C33.7284416,45.5288322 32.7788322,46.4784416 31.6034416,46.4784416 Z M39.0409416,39.3065666 C39.0409416,39.7448478 38.6823478,40.1034416 38.2440666,40.1034416 L24.9628166,40.1034416 C24.5245353,40.1034416 24.1659416,39.7448478 24.1659416,39.3065666 L24.1659416,18.5878166 C24.1659416,18.1495353 24.5245353,17.7909416 24.9628166,17.7909416 L38.2440666,17.7909416 C38.6823478,17.7909416 39.0409416,18.1495353 39.0409416,18.5878166 L39.0409416,39.3065666 Z" id="mobile-alt-solid"></path>
                </g>
            </g>
        </g>
    </g>
</svg>